<?xml version="1.0" encoding="utf-8"?>
<!-- Generator: Adobe Illustrator 16.0.0, SVG Export Plug-In . SVG Version: 6.00 Build 0)  -->
<!DOCTYPE svg PUBLIC "-//W3C//DTD SVG 1.1//EN" "http://www.w3.org/Graphics/SVG/1.1/DTD/svg11.dtd">
<svg version="1.1" id="Capa_1" xmlns="http://www.w3.org/2000/svg" xmlns:xlink="http://www.w3.org/1999/xlink" x="0px" y="0px"
	 width="376.323px" height="84.209px" viewBox="0 0 376.323 84.209" enable-background="new 0 0 376.323 84.209"
	 xml:space="preserve">
<g>
	<path fill="#525C6F" d="M129.098,29.583c-0.507-3.038-1.519-5.569-2.869-7.931c-1.35-2.363-3.375-4.219-5.737-5.738
		c-2.363-1.519-5.569-2.194-9.45-2.363h-6.919v43.37c1.012,1.013,2.531,1.856,4.219,2.7s3.544,1.182,5.4,1.182
		c2.699,0,5.063-0.676,7.087-2.025c2.025-1.35,3.713-3.207,5.063-5.231c1.35-2.194,2.362-4.557,3.037-7.257
		c0.675-2.699,1.013-5.231,1.013-7.763C129.941,35.489,129.604,32.62,129.098,29.583z M135.679,47.809
		c-1.013,3.375-2.531,6.244-4.388,8.775s-4.219,4.725-7.088,6.243c-2.699,1.519-5.737,2.362-9.112,2.362
		c-1.688,0-3.544-0.168-5.231-0.675c-1.688-0.506-3.375-1.013-4.726-1.688c-1.519-0.675-2.868-1.35-4.219-2.193
		c-1.35-0.844-2.362-1.688-3.375-2.362V8.826l17.889,0.169c3.881,0,7.087,0.844,9.956,2.531c2.7,1.688,5.063,3.881,6.75,6.582
		s3.038,5.737,3.882,9.281c0.844,3.375,1.35,6.919,1.35,10.294C137.197,41.227,136.691,44.602,135.679,47.809z"/>
	<path fill="#525C6F" d="M163.861,44.214c-1.013,0-2.194,0-3.713,0s-3.038,0-4.726,0.169c-2.531,0-4.556,0.675-6.243,2.024
		c-1.688,1.351-2.532,3.206-2.532,5.737c0,1.182,0.169,2.194,0.676,3.207c0.506,1.013,1.013,1.856,1.856,2.7
		s1.688,1.519,2.699,1.856c1.013,0.506,2.194,0.675,3.544,0.675c1.856,0,3.544-0.338,5.063-1.013
		c1.52-0.844,2.532-1.519,3.207-2.193V44.214H163.861z M162.849,62.945c-2.869,1.35-6.244,1.856-10.125,1.856
		c-1.688,0-3.376-0.507-4.895-1.182s-2.869-1.519-4.05-2.7c-1.182-1.181-2.025-2.531-2.7-4.05s-1.013-3.206-0.844-4.894
		c0-1.856,0.338-3.544,1.013-5.063c0.675-1.52,1.688-2.7,2.868-3.713c1.182-1.013,2.531-1.856,4.219-2.363
		c1.52-0.506,3.376-0.844,5.232-0.844h10.462v-3.712c0-1.182-0.168-2.194-0.675-3.038c-0.506-0.844-1.013-1.688-1.856-2.363
		c-0.844-0.675-1.688-1.181-2.7-1.519c-1.012-0.337-2.024-0.506-3.206-0.506c-1.856,0-3.713,0.168-5.231,0.675
		c-1.519,0.506-3.206,1.181-4.894,2.025l-1.519-3.713c2.362-1.181,4.387-2.025,6.412-2.531s4.388-0.675,6.919-0.675
		c1.519,0,3.206,0.337,4.726,0.844c1.519,0.506,2.868,1.35,4.05,2.194c1.182,1.013,2.194,2.194,2.869,3.544
		c0.675,1.35,1.181,3.037,1.181,4.725v22.276C168.249,60.076,165.886,61.764,162.849,62.945z"/>
	<path fill="#525C6F" d="M177.699,26.663l6.412-2.194v39.658h-6.412V26.663z M176.687,11.981c0-1.181,0.337-2.194,1.181-3.038
		s1.856-1.181,3.038-1.181s2.193,0.337,3.037,1.181s1.182,1.856,1.182,3.038s-0.338,2.194-1.182,3.038s-1.855,1.181-3.037,1.181
		s-2.194-0.337-3.038-1.181C177.023,14.344,176.687,13.332,176.687,11.981z"/>
	<path fill="#525C6F" d="M195.418,62.776c-2.362-1.688-3.544-4.388-3.544-7.594V4.894l6.244-2.025v52.145
		c0,2.531,0.675,4.219,1.856,5.063c1.35,0.844,3.037,1.351,5.231,1.351v3.375C201.155,65.139,197.78,64.465,195.418,62.776z"/>
	<path fill="#525C6F" d="M214.318,51.471c0,3.037,1.013,5.23,2.869,6.75c1.856,1.519,4.219,2.193,7.088,2.193
		c1.688,0,3.375-0.506,5.231-1.182c1.688-0.844,3.206-1.519,4.219-2.193V25.65h6.412v34.933c0,1.181,0,2.362-0.168,3.712
		c0,1.351-0.169,2.701-0.338,4.051s-0.338,2.7-0.675,3.881c-0.338,1.182-0.675,2.363-1.182,3.207
		c-0.844,1.519-2.024,2.868-3.375,4.05c-1.519,1.181-3.037,2.024-4.894,2.7c-1.688,0.675-3.544,1.182-5.4,1.519
		s-3.544,0.507-5.231,0.507l-1.013-4.051c1.182-0.168,2.531-0.338,4.051-0.675c1.519-0.169,2.868-0.507,4.219-1.013
		c1.35-0.506,2.531-1.013,3.712-1.856c1.182-0.844,2.025-1.688,2.7-3.037c0.338-0.507,0.675-1.351,0.844-2.194
		s0.338-1.855,0.338-2.699c0.169-1.014,0.169-1.857,0.169-2.701s0-1.688,0-2.362c0-0.506,0-0.675,0-0.844s0-0.337,0-0.844
		c-1.013,0.507-2.531,1.013-4.895,1.856c-2.193,0.844-5.231,1.182-8.943,1.182c-1.52,0-2.869-0.169-4.388-0.676
		c-1.52-0.506-2.869-1.181-4.051-2.193c-1.181-1.013-2.193-2.193-2.868-3.544s-1.182-3.038-1.182-4.726V27l6.581-2.194v26.664
		H214.318z"/>
	<polygon fill="#525C6F" points="286.039,13.382 269.67,13.382 269.67,64.684 263.089,64.684 263.089,13.382 246.551,13.382 
		248.576,8.995 285.871,8.826 285.871,13.382 	"/>
	<path fill="#525C6F" d="M304.265,44.214c-1.013,0-2.193,0-3.712,0c-1.52,0-3.038,0-4.726,0.169c-2.531,0-4.557,0.675-6.244,2.024
		c-1.688,1.351-2.531,3.206-2.531,5.737c0,1.182,0.169,2.194,0.675,3.207c0.507,1.013,1.013,1.856,1.856,2.7s1.688,1.519,2.7,1.856
		c1.013,0.506,2.194,0.675,3.544,0.675c1.856,0,3.544-0.338,5.063-1.013c1.519-0.844,2.531-1.519,3.207-2.193V44.214H304.265z
		 M303.252,62.945c-2.868,1.35-6.243,1.856-10.125,1.856c-1.688,0-3.375-0.507-4.894-1.182s-2.869-1.519-4.051-2.7
		c-1.181-1.181-2.024-2.531-2.699-4.05c-0.676-1.519-1.013-3.206-0.844-4.894c0-1.856,0.337-3.544,1.012-5.063
		c0.676-1.52,1.688-2.7,2.869-3.713s2.531-1.856,4.219-2.363c1.52-0.506,3.375-0.844,5.231-0.844h10.463v-3.712
		c0-1.182-0.169-2.194-0.675-3.038s-1.013-1.688-1.856-2.363c-0.844-0.675-1.688-1.181-2.7-1.519s-2.025-0.506-3.206-0.506
		c-1.856,0-3.713,0.168-5.231,0.675c-1.519,0.506-3.206,1.181-4.894,2.025l-1.52-3.713c2.363-1.181,4.388-2.025,6.413-2.531
		s4.388-0.675,6.919-0.675c1.519,0,3.206,0.337,4.725,0.844c1.52,0.506,2.869,1.35,4.051,2.194c1.181,1.013,2.193,2.194,2.868,3.544
		c0.676,1.35,1.182,3.037,1.182,4.725v22.276C308.652,60.076,306.121,61.764,303.252,62.945z"/>
	<path fill="#525C6F" d="M319.622,63.958c-2.194-0.844-4.051-1.856-5.738-3.206l2.363-3.713c1.35,1.013,2.868,1.856,4.725,2.362
		c1.856,0.675,3.544,1.013,5.231,1.013c1.013,0,2.193-0.169,3.206-0.338c1.013-0.337,2.025-0.675,3.038-1.181
		c0.844-0.507,1.519-1.182,2.193-2.025c0.507-0.844,0.844-1.856,0.675-3.206c0-1.013-0.168-1.688-0.675-2.363
		c-0.337-0.674-0.844-1.181-1.519-1.688c-0.675-0.506-1.35-0.844-2.025-1.181c-0.844-0.338-1.519-0.675-2.193-0.844
		c-0.507-0.169-1.182-0.507-1.688-0.675c-0.507-0.169-1.182-0.507-1.856-0.676c-1.182-0.506-2.362-1.012-3.544-1.35
		c-1.182-0.506-2.362-1.182-3.375-1.856c-1.013-0.844-1.856-1.688-2.7-2.869c-0.675-1.181-1.013-2.7-1.013-4.388
		c0-1.856,0.338-3.375,1.182-4.894c0.844-1.519,1.856-2.7,3.037-3.544c1.182-1.012,2.7-1.688,4.388-2.193
		c1.688-0.506,3.207-0.675,5.063-0.675c2.025,0,3.882,0.337,5.738,0.844s3.712,1.35,5.399,2.363l-2.362,3.712
		c-2.868-1.519-5.568-2.362-8.438-2.531c-1.013,0-1.856,0.169-2.7,0.337c-0.844,0.169-1.688,0.675-2.531,1.182
		c-0.844,0.506-1.35,1.181-1.856,1.856c-0.506,0.844-0.675,1.688-0.675,2.7c0,1.181,0.338,2.025,0.844,2.7
		c0.675,0.675,1.35,1.181,2.362,1.688s2.194,1.012,3.375,1.519c1.182,0.506,2.531,1.013,3.713,1.519
		c1.182,0.506,2.362,1.013,3.544,1.519c1.182,0.507,2.362,1.182,3.375,2.025s1.856,1.856,2.7,3.037
		c0.675,1.182,1.013,2.7,1.013,4.388c0,2.025-0.507,3.882-1.351,5.4s-2.024,2.869-3.544,3.713c-1.519,1.012-3.037,1.688-4.894,2.193
		s-3.713,0.676-5.4,0.676C324.009,65.139,321.815,64.802,319.622,63.958z"/>
	<polygon fill="#525C6F" points="376.323,64.127 368.729,64.127 355.229,43.37 351.685,46.576 351.685,63.958 345.272,63.958 
		345.272,4.725 351.685,2.531 351.685,40.67 369.742,24.301 372.948,27.338 360.123,38.813 	"/>
	<path fill="#ED696B" d="M0,0c25.482,0,50.795,0,76.277,0c0,25.482,0,50.795,0,76.277c-25.482,0-50.795,0-76.277,0
		C0,50.795,0,25.482,0,0z"/>
	<path d="M37.801,14.682c-7.931,1.519-15.525,3.206-23.119,4.725c-1.182,0.168-1.519,0.675-1.519,1.856c0,10.969,0,22.107,0,33.076
		c0,1.181,0.337,1.688,1.519,1.856c5.4,1.013,10.632,2.193,16.032,3.206c2.362,0.507,4.725,0.844,7.087,1.351
		C37.801,45.395,37.801,30.207,37.801,14.682z"/>
	<path fill="#FFFFFF" d="M14.682,19.407c-1.182,0.168-1.519,0.675-1.519,1.856c0,10.969,0,22.107,0,33.076
		c0,1.181,0.337,1.688,1.519,1.856c5.4,1.013,10.632,2.193,16.032,3.206c2.362,0.507,4.725,0.844,7.087,1.351
		c0-15.525,0-30.714,0-46.239C29.87,16.369,22.275,17.888,14.682,19.407z"/>
	<path fill="#FFFFFF" d="M63.114,23.794c0-1.35-0.338-1.688-1.688-1.688c-6.581,0-13.332,0-19.913,0v4.219
		c5.737,0,11.645,0,17.382,0c0.506,0,1.182,0,1.688,0c0,8.606,0,16.875,0,25.482c-0.675,0-1.35,0-1.856,0
		c-5.737,0-11.644,0-17.213,0v1.856c7.088,0,14.344,0,21.432,0c0-0.676,0-1.013,0-1.52C62.945,42.526,62.945,33.245,63.114,23.794z"
		/>
	<path fill="#FFFFFF" d="M48.264,34.257h-6.075c-0.337,0-0.675-0.337-0.675-0.675v-3.544c0-0.337,0.338-0.675,0.675-0.675h6.075
		c0.338,0,0.675,0.337,0.675,0.675v3.544C48.938,33.919,48.602,34.257,48.264,34.257z"/>
	<path fill="#FFFFFF" d="M57.883,34.257h-6.075c-0.338,0-0.675-0.337-0.675-0.675v-3.544c0-0.337,0.337-0.675,0.675-0.675h6.075
		c0.338,0,0.675,0.337,0.675,0.675v3.544C58.558,33.919,58.221,34.257,57.883,34.257z"/>
	<path fill="#FFFFFF" d="M48.264,41.514h-6.075c-0.337,0-0.675-0.338-0.675-0.675v-3.543c0-0.338,0.338-0.675,0.675-0.675h6.075
		c0.338,0,0.675,0.337,0.675,0.675v3.543C48.938,41.345,48.602,41.514,48.264,41.514z"/>
	<path fill="#FFFFFF" d="M57.883,41.514h-6.075c-0.338,0-0.675-0.338-0.675-0.675v-3.543c0-0.338,0.337-0.675,0.675-0.675h6.075
		c0.338,0,0.675,0.337,0.675,0.675v3.543C58.558,41.345,58.221,41.514,57.883,41.514z"/>
	<path fill="#FFFFFF" d="M57.883,48.938h-6.075c-0.338,0-0.675-0.337-0.675-0.675V44.72c0-0.337,0.337-0.675,0.675-0.675h6.075
		c0.338,0,0.675,0.338,0.675,0.675v3.544C58.558,48.602,58.221,48.938,57.883,48.938z"/>
	<path fill="#ED696B" d="M22.95,42.357c0.507-1.013,1.013-1.856,1.52-2.869c0.506-0.844,1.013-1.856,1.688-2.7
		c0.337-0.675,0.844-1.181,1.35-1.856c0.338-0.506,0.676-0.844,1.182-1.35c0.506-0.675,1.013-1.181,1.688-1.688
		c0.506-0.506,1.182-0.844,1.688-1.35c0.844-0.675,1.856-1.012,2.7-1.35c0.675-0.337,1.35-0.506,2.193-0.675
		c0.676-0.169,1.351-0.169,2.025-0.338c0.169,0,0.506,0,0.675-0.168c-0.169,0.168-0.337,0.168-0.506,0.337
		c-0.675,0.506-1.519,1.013-2.194,1.519c-0.506,0.338-1.013,0.675-1.519,1.182c-0.338,0.337-0.844,0.675-1.182,1.013
		c-0.337,0.337-0.844,0.675-1.181,1.012c-0.507,0.506-0.844,0.844-1.351,1.35c-0.506,0.506-0.844,1.013-1.35,1.688
		s-0.844,1.182-1.35,1.856c-0.507,0.844-1.013,1.519-1.351,2.362c-0.338,0.675-0.675,1.35-1.013,2.025
		c-0.337,0.844-0.675,1.688-1.013,2.531c0,0.169-0.168,0.338-0.168,0.506c0,0.169-0.169,0.338-0.338,0.338
		c-1.013,0.506-2.025,1.182-3.038,1.688l-0.168,0.169c-0.169,0-0.169,0-0.338,0c-0.338-0.507-0.844-1.013-1.182-1.519
		c-0.337-0.338-0.675-0.676-1.012-1.013c-0.169-0.338-0.507-0.507-0.844-0.844c-0.169-0.169-0.507-0.507-0.676-0.675
		c-0.168-0.169-0.506-0.507-0.675-0.676c-0.337-0.337-0.844-0.675-1.181-1.012l-0.169-0.169c0.844-1.012,1.688-2.194,2.7-3.375
		C20.419,39.488,21.77,41.007,22.95,42.357z"/>
</g>
</svg>
